<svg xmlns="http://www.w3.org/2000/svg" viewBox="0 0 466.58 190.54"><defs><style>.clccs-1{fill:#e9631f;}.clccs-2{fill:#231815;}</style></defs><title>Asset 3</title><g id="Layer_2" data-name="Layer 2"><g id="圖層_1" data-name="圖層 1"><rect class="clccs-1" y="163.22" width="157.06" height="27.31"/><path class="clccs-1" d="M152.22,97.19a25.26,25.26,0,0,1,0-42.16,78.46,78.46,0,0,0-7.39-17.83h0A25.26,25.26,0,0,1,115,7.39,78.47,78.47,0,0,0,97.19,0,25.24,25.24,0,0,1,76.11,11.35,25.24,25.24,0,0,1,55,0,78.47,78.47,0,0,0,37.2,7.39h0A25.26,25.26,0,0,1,7.39,37.2h0A78.47,78.47,0,0,0,0,55,25.24,25.24,0,0,1,11.35,76.11,25.24,25.24,0,0,1,0,97.19,78.46,78.46,0,0,0,7.39,115,25.26,25.26,0,0,1,37.2,144.83,78.47,78.47,0,0,0,55,152.22a25.26,25.26,0,0,1,42.16,0A78.47,78.47,0,0,0,115,144.83,25.26,25.26,0,0,1,144.83,115,78.46,78.46,0,0,0,152.22,97.19Zm-30.54-8.46a47,47,0,0,1-4.43,10.67A15.12,15.12,0,0,0,99.4,117.25a47,47,0,0,1-10.67,4.43,15.12,15.12,0,0,0-25.24,0,47,47,0,0,1-10.67-4.43h0A15.12,15.12,0,0,0,35,99.4a47,47,0,0,1-4.43-10.67,15.12,15.12,0,0,0,0-25.24A47,47,0,0,1,35,52.81h0A15.12,15.12,0,0,0,52.81,35a47,47,0,0,1,10.67-4.43,15.12,15.12,0,0,0,25.24,0A47,47,0,0,1,99.4,35h0a15.12,15.12,0,0,0,17.85,17.85h0a47,47,0,0,1,4.43,10.67,15.12,15.12,0,0,0,0,25.24Z"/><circle class="clccs-1" cx="75.41" cy="77.14" r="24.71"/><path class="clccs-2" d="M211,39.18h12.26c5.62,0,9.94.06,13.4,2.72a12,12,0,0,1,4.54,9.94c0,6.3-3.18,10.33-9.08,11.58l11.07,16.35H230.67l-9.31-15.9v15.9H211ZM223.4,58.37c4.66,0,6.87-1.48,6.87-5.05,0-4.26-2.1-5.62-6.7-5.62h-2.21V58.37Z"/><path class="clccs-2" d="M247.35,39.18h24.87v8.91H258.14v7h13.29v8.69H258.14v6.87h14.08v9.08H247.35Z"/><path class="clccs-2" d="M288.79,39.18h13.85l14,40.6h-11l-2-7.27H287.88l-2.1,7.27h-11Zm12.49,25.44-4.14-13.4q-.25-.94-1.36-5.45c-.74,3-1.25,4.83-1.42,5.45l-4.09,13.4Z"/><path class="clccs-2" d="M324,48.77h-9V39.18h29.18v9.59h-9.08v31H324Z"/><path class="clccs-2" d="M349.53,39.18H374.4v8.91H360.31v7H373.6v8.69H360.31v6.87H374.4v9.08H349.53Z"/><path class="clccs-2" d="M186.79,127c3.07,0,5.05-1.82,5.05-4.2,0-3.24-2.21-4.2-6.81-5.39-7.32-1.93-10.9-4.88-10.9-11.24,0-7.55,5.51-13.17,14-13.17a20.5,20.5,0,0,1,12,3.63l-3.46,7.95a12.31,12.31,0,0,0-7.78-3.24c-2.72,0-4.49,1.48-4.49,3.41,0,2.89,2.78,3.52,6.47,4.49,7.21,1.93,11.19,4.6,11.19,12.09,0,8.46-6,14.31-15.56,14.31-5.73,0-10-1.82-14.42-6l5-8.23C180.37,125.09,183.55,127,186.79,127Z"/><path class="clccs-2" d="M219.09,93.92v22c0,7.21,1.31,10.33,7,10.33,6.76,0,7-4.2,7-12.89V93.92h11V118c0,12.26-5.17,17.55-18.06,17.55-6.87,0-11.64-1.59-14.54-4.94-3.24-3.69-3.52-8.46-3.52-14.82V93.92Z"/><path class="clccs-2" d="M323.87,93.92h24.87v8.91H334.66v7h13.29v8.69H334.66v6.87h14.08v9.08H323.87Z"/><path class="clccs-2" d="M367.52,127c3.07,0,5.05-1.82,5.05-4.2,0-3.24-2.21-4.2-6.81-5.39-7.32-1.93-10.9-4.88-10.9-11.24,0-7.55,5.51-13.17,14-13.17a20.5,20.5,0,0,1,12,3.63l-3.46,7.95a12.31,12.31,0,0,0-7.78-3.24c-2.72,0-4.49,1.48-4.49,3.41,0,2.89,2.78,3.52,6.47,4.49,7.21,1.93,11.19,4.6,11.19,12.09,0,8.46-6,14.31-15.56,14.31-5.73,0-10-1.82-14.42-6l5-8.23C361.11,125.09,364.29,127,367.52,127Z"/><path class="clccs-2" d="M400.5,127c3.07,0,5.05-1.82,5.05-4.2,0-3.24-2.21-4.2-6.81-5.39-7.32-1.93-10.9-4.88-10.9-11.24,0-7.55,5.51-13.17,14-13.17a20.5,20.5,0,0,1,12,3.63l-3.46,7.95a12.31,12.31,0,0,0-7.78-3.24c-2.72,0-4.49,1.48-4.49,3.41,0,2.89,2.78,3.52,6.47,4.49,7.21,1.93,11.19,4.6,11.19,12.09,0,8.46-6,14.31-15.56,14.31-5.73,0-10-1.82-14.42-6l5-8.23C394.09,125.09,397.27,127,400.5,127Z"/><path class="clccs-2" d="M204.73,162.35c-3-3.29-5.79-4.88-9.37-4.88-6.42,0-10.67,4.88-10.67,11.75,0,6.24,4.2,11.3,10.67,11.3,3.58,0,6.42-1.59,9.37-4.88v12.09a23.47,23.47,0,0,1-10.5,2.55c-12,0-20.61-9-20.61-21.29s8.63-21.29,20.61-21.29a23.47,23.47,0,0,1,10.5,2.55Z"/><path class="clccs-2" d="M246.34,184.09A22.13,22.13,0,0,1,231,190.34a22.36,22.36,0,0,1-13.8-4.88A21,21,0,0,1,215.62,154a22,22,0,0,1,30.72,0,21.11,21.11,0,0,1,0,30.09Zm-4.77-15c0-6.59-4.43-11.92-10.62-11.92S220.33,162.4,220.33,169,224.48,181,231,181C237.25,181,241.57,175.69,241.57,169Z"/><path class="clccs-2" d="M295.78,189.26l-2.38-17.55c-.34-2.44-.62-5.45-.85-9.08a53.91,53.91,0,0,1-1.87,7.61l-5.51,19h-7.38l-5.51-19a54.43,54.43,0,0,1-1.87-7.61c-.23,3.63-.57,6.64-.91,9.08l-2.38,17.55H256.83l6.25-40.6h11l6.13,20.95a33.1,33.1,0,0,1,1.31,5.51,31.52,31.52,0,0,1,1.25-5.56l6.19-20.89h11l6.25,40.6Z"/><path class="clccs-2" d="M312.06,189.26v-40.6h12.38c5.11,0,9.14.06,12.32,2.1,3.58,2.27,5.68,6.47,5.68,11.69,0,5.39-2,9.43-5.62,11.58-2.78,1.65-5.9,1.82-9.71,1.82h-4.66v13.4Zm12.49-22.31c4.71,0,7.15-.91,7.15-4.83s-2.55-4.71-7-4.71h-2.21v9.54Z"/><path class="clccs-2" d="M354.41,148.66h13.85l14,40.6h-11l-2-7.27H353.5l-2.1,7.27h-11ZM366.9,174.1l-4.14-13.4q-.25-.94-1.36-5.45c-.74,3-1.25,4.83-1.42,5.45l-4.09,13.4Z"/><path class="clccs-2" d="M386.14,148.66h10.67l15.33,20.89a60.8,60.8,0,0,1,3.69,7.15,67.19,67.19,0,0,1-.62-8v-20h10.62v40.6H415.21l-15.33-21a57.32,57.32,0,0,1-3.69-7.1,67.19,67.19,0,0,1,.62,8v20H386.14Z"/><path class="clccs-2" d="M441.71,170.75l-14.25-22.09h12.77l5.45,10.45a11.7,11.7,0,0,1,1.36,3.46,11.13,11.13,0,0,1,1.42-3.46l5.39-10.45h12.72l-14.19,22.09v18.51H441.71Z"/><path class="clccs-1" d="M198.5,38.83a6.85,6.85,0,0,1-11.43,0,21.28,21.28,0,0,0-4.83,2,6.85,6.85,0,0,1-8.08,8.08,21.27,21.27,0,0,0-2,4.83,6.85,6.85,0,0,1,0,11.43,21.27,21.27,0,0,0,2,4.83,6.85,6.85,0,0,1,8.08,8.08,21.28,21.28,0,0,0,4.83,2,6.85,6.85,0,0,1,11.43,0,21.19,21.19,0,0,0,3.62-1.41V64.95c-2.43,2.71-4.77,4-7.72,4-5.33,0-8.8-4.16-8.8-9.31,0-5.66,3.51-9.68,8.8-9.68,2.95,0,5.29,1.31,7.72,4V40.24A21.19,21.19,0,0,0,198.5,38.83Z"/><path class="clccs-1" d="M277.54,93.27a6.85,6.85,0,0,1-11.43,0,21.28,21.28,0,0,0-4.83,2,6.85,6.85,0,0,1-8.08,8.08,21.27,21.27,0,0,0-2,4.83,6.85,6.85,0,0,1,0,11.43,21.27,21.27,0,0,0,2,4.83,6.85,6.85,0,0,1,8.08,8.08,21.28,21.28,0,0,0,4.83,2,6.85,6.85,0,0,1,11.43,0,21.19,21.19,0,0,0,3.62-1.41V119.39c-2.43,2.71-4.77,4-7.72,4-5.33,0-8.8-4.16-8.8-9.31,0-5.66,3.51-9.68,8.8-9.68,2.95,0,5.29,1.31,7.72,4V94.68A21.19,21.19,0,0,0,277.54,93.27Z"/><path class="clccs-1" d="M313.83,93.27a6.85,6.85,0,0,1-11.43,0,21.28,21.28,0,0,0-4.83,2,6.85,6.85,0,0,1-8.08,8.08,21.27,21.27,0,0,0-2,4.83,6.85,6.85,0,0,1,0,11.43,21.27,21.27,0,0,0,2,4.83,6.85,6.85,0,0,1,8.08,8.08,21.28,21.28,0,0,0,4.83,2,6.85,6.85,0,0,1,11.43,0,21.19,21.19,0,0,0,3.62-1.41V119.39c-2.43,2.71-4.77,4-7.72,4-5.33,0-8.8-4.16-8.8-9.31,0-5.66,3.51-9.68,8.8-9.68,2.95,0,5.29,1.31,7.72,4V94.68A21.19,21.19,0,0,0,313.83,93.27Z"/></g></g></svg>
