<svg xmlns="http://www.w3.org/2000/svg" viewBox="0 0 231.98 68"><defs><style>.cls-1{fill:#231815;}.cls-2{fill:#f36421;}</style></defs><title>Asset 19</title><g id="Layer_2" data-name="Layer 2"><g id="layer1"><path class="cls-1" d="M167.17,19.49H171c1.78,0,3.14,0,4.24.86a3.81,3.81,0,0,1,1.44,3.14,3.4,3.4,0,0,1-2.87,3.66l3.5,5.17h-4l-2.95-5v5h-3.29Zm3.93,6.07c1.47,0,2.17-.47,2.17-1.6,0-1.35-.66-1.78-2.12-1.78h-.7v3.38Z"/><path class="cls-1" d="M178.68,19.49h7.87v2.82h-4.45v2.23h4.2v2.75h-4.2v2.17h4.45v2.87h-7.87Z"/><path class="cls-1" d="M191.79,19.49h4.38l4.44,12.84h-3.48l-.65-2.3h-5l-.66,2.3h-3.48Zm4,8-1.31-4.24q-.08-.3-.43-1.72c-.23,1-.4,1.53-.45,1.72l-1.29,4.24Z"/><path class="cls-1" d="M202.92,22.53h-2.86v-3h9.23v3h-2.87v9.81h-3.5Z"/><path class="cls-1" d="M211,19.49h7.87v2.82h-4.45v2.23h4.2v2.75h-4.2v2.17h4.45v2.87H211Z"/><path class="cls-1" d="M159.52,47.26a1.42,1.42,0,0,0,1.6-1.33c0-1-.7-1.33-2.16-1.71-2.32-.61-3.45-1.54-3.45-3.56a4.11,4.11,0,0,1,4.44-4.17,6.49,6.49,0,0,1,3.81,1.15l-1.1,2.51a3.89,3.89,0,0,0-2.46-1c-.86,0-1.42.47-1.42,1.08,0,.92.88,1.11,2,1.42,2.28.61,3.54,1.46,3.54,3.83,0,2.68-1.9,4.53-4.92,4.53a6.16,6.16,0,0,1-4.56-1.89l1.58-2.6A4.23,4.23,0,0,0,159.52,47.26Z"/><path class="cls-1" d="M169.73,36.81v7c0,2.28.41,3.27,2.23,3.27,2.14,0,2.23-1.33,2.23-4.08V36.81h3.48v7.63C177.67,48.32,176,50,172,50c-2.17,0-3.68-.5-4.6-1.56s-1.11-2.68-1.11-4.69V36.81Z"/><path class="cls-1" d="M202.89,36.81h7.87v2.82H206.3v2.23h4.2v2.75h-4.2v2.17h4.45v2.87h-7.87Z"/><path class="cls-1" d="M216.7,47.26a1.42,1.42,0,0,0,1.6-1.33c0-1-.7-1.33-2.16-1.71-2.32-.61-3.45-1.54-3.45-3.56a4.11,4.11,0,0,1,4.44-4.17,6.49,6.49,0,0,1,3.81,1.15l-1.1,2.51a3.89,3.89,0,0,0-2.46-1c-.86,0-1.42.47-1.42,1.08,0,.92.88,1.11,2,1.42,2.28.61,3.54,1.46,3.54,3.83,0,2.68-1.9,4.53-4.92,4.53a6.16,6.16,0,0,1-4.56-1.89l1.58-2.6A4.23,4.23,0,0,0,216.7,47.26Z"/><path class="cls-1" d="M227.13,47.26a1.42,1.42,0,0,0,1.6-1.33c0-1-.7-1.33-2.16-1.71-2.32-.61-3.45-1.54-3.45-3.56a4.11,4.11,0,0,1,4.44-4.17,6.49,6.49,0,0,1,3.81,1.15l-1.1,2.51a3.89,3.89,0,0,0-2.46-1c-.86,0-1.42.47-1.42,1.08,0,.92.88,1.11,2,1.42,2.28.61,3.54,1.46,3.54,3.83,0,2.68-1.9,4.53-4.92,4.53a6.16,6.16,0,0,1-4.56-1.89l1.58-2.6A4.23,4.23,0,0,0,227.13,47.26Z"/><path class="cls-2" d="M163.22,19.38a2.17,2.17,0,0,1-3.62,0,6.73,6.73,0,0,0-1.53.63,2.17,2.17,0,0,1-2.56,2.56,6.73,6.73,0,0,0-.63,1.53,2.17,2.17,0,0,1,0,3.62,6.73,6.73,0,0,0,.63,1.53,2.17,2.17,0,0,1,2.56,2.56,6.73,6.73,0,0,0,1.53.63,2.17,2.17,0,0,1,3.62,0,6.7,6.7,0,0,0,1.15-.45V27.64a3.17,3.17,0,0,1-2.44,1.27A2.77,2.77,0,0,1,159.14,26a2.79,2.79,0,0,1,2.78-3.06,3.17,3.17,0,0,1,2.44,1.27V19.83A6.7,6.7,0,0,0,163.22,19.38Z"/><path class="cls-2" d="M188.23,36.61a2.17,2.17,0,0,1-3.62,0,6.73,6.73,0,0,0-1.53.63,2.17,2.17,0,0,1-2.56,2.56,6.73,6.73,0,0,0-.63,1.53,2.17,2.17,0,0,1,0,3.62,6.73,6.73,0,0,0,.63,1.53A2.17,2.17,0,0,1,183.08,49a6.73,6.73,0,0,0,1.53.63,2.17,2.17,0,0,1,3.62,0,6.7,6.7,0,0,0,1.15-.45V44.87a3.17,3.17,0,0,1-2.44,1.27,2.77,2.77,0,0,1-2.78-2.95,2.79,2.79,0,0,1,2.78-3.06,3.17,3.17,0,0,1,2.44,1.27V37.05A6.7,6.7,0,0,0,188.23,36.61Z"/><path class="cls-2" d="M199.71,36.61a2.17,2.17,0,0,1-3.62,0,6.73,6.73,0,0,0-1.53.63A2.17,2.17,0,0,1,192,39.8a6.73,6.73,0,0,0-.63,1.53,2.17,2.17,0,0,1,0,3.62,6.73,6.73,0,0,0,.63,1.53A2.17,2.17,0,0,1,194.56,49a6.73,6.73,0,0,0,1.53.63,2.17,2.17,0,0,1,3.62,0,6.7,6.7,0,0,0,1.15-.45V44.87a3.17,3.17,0,0,1-2.44,1.27,2.77,2.77,0,0,1-2.78-2.95,2.79,2.79,0,0,1,2.78-3.06,3.17,3.17,0,0,1,2.44,1.27V37.05A6.7,6.7,0,0,0,199.71,36.61Z"/><path class="cls-2" d="M68,43.42a11.28,11.28,0,0,1,0-18.83,35,35,0,0,0-3.3-8h0A11.28,11.28,0,0,1,51.38,3.3a35.05,35.05,0,0,0-8-3.3A11.27,11.27,0,0,1,34,5.07,11.28,11.28,0,0,1,24.58,0a35.05,35.05,0,0,0-8,3.3h0A11.28,11.28,0,0,1,3.3,16.62h0a35.05,35.05,0,0,0-3.3,8A11.28,11.28,0,0,1,5.07,34,11.28,11.28,0,0,1,0,43.42a35.05,35.05,0,0,0,3.3,8A11.28,11.28,0,0,1,16.62,64.7a35.05,35.05,0,0,0,8,3.3,11.28,11.28,0,0,1,18.83,0,35.06,35.06,0,0,0,8-3.3A11.28,11.28,0,0,1,64.7,51.38,35,35,0,0,0,68,43.42ZM54.35,39.64a21,21,0,0,1-2,4.77,6.75,6.75,0,0,0-8,8,21,21,0,0,1-4.77,2,6.75,6.75,0,0,0-11.28,0,21,21,0,0,1-4.77-2h0a6.75,6.75,0,0,0-8-8,21,21,0,0,1-2-4.77,6.75,6.75,0,0,0,0-11.28,21,21,0,0,1,2-4.77h0a6.75,6.75,0,0,0,8-8,21,21,0,0,1,4.77-2,6.75,6.75,0,0,0,11.28,0,21,21,0,0,1,4.77,2h0a6.75,6.75,0,0,0,8,8h0a21,21,0,0,1,2,4.77,6.75,6.75,0,0,0,0,11.28Z"/><circle class="cls-2" cx="33.69" cy="34.46" r="11.04"/><path d="M87.25,30.7v11q1.78,3,7.14,3.19,3.05.14,8.41,0t9-.41a21.11,21.11,0,0,0-1.65,5.22q-8.38.45-15.82.1a17.28,17.28,0,0,1-5.44-1A9.65,9.65,0,0,1,85,46.07q-2.54,2.23-4.81,4.05L77.7,44.77a48.92,48.92,0,0,0,4.53-2.85V35.4h-3.6V30.7ZM88,23.14,84,26.51a17,17,0,0,0-2.3-2.71,36.35,36.35,0,0,0-3.19-2.85l3.78-3.06A27.49,27.49,0,0,1,88,23.14Zm.1,4h2.23a37.66,37.66,0,0,0-3.47-1.85,13.94,13.94,0,0,0,2.87-3.47,21.18,21.18,0,0,0,2-4.46l4.74,1.07q-.45,1.34-.89,2.37h1.58V17.07h5v3.74h7.28V25.1h-7.28v2.06H111v4.25H88.14Zm20.94,16.17H90.78V32.86h18.29ZM97.23,25.1h-4a23.94,23.94,0,0,1-1.54,2.06h5.53ZM95.79,36.87v2.47h7.93V36.87Z"/><path d="M144.27,37.77v7.52h3.81v4.53h-32.3V45.28h4.15V37.94l-.51.65a16.51,16.51,0,0,0-2.08-1.67,14.06,14.06,0,0,0-2.25-1.35q3-3.71,3-11.43v-3.6h13.18q-.28-2.3-.34-3.4h5.11q0,1.13.31,3.4h3.12a13.71,13.71,0,0,0-2.16-1.75l3.43-2a18.46,18.46,0,0,1,3.84,3l-1.17.75h4.08V24.9H137.37a28.6,28.6,0,0,0,1.3,3.4A14,14,0,0,0,140.94,25l4.6,1.37a24.77,24.77,0,0,1-4.29,5.66,3.06,3.06,0,0,0,1.89.76.94.94,0,0,0,.89-.74,11.7,11.7,0,0,0,.45-2.66,10.47,10.47,0,0,0,3.95,2.23q-.55,3.6-1.77,4.82a5.12,5.12,0,0,1-3.83,1.18,7.7,7.7,0,0,1-5.46-2.44,27.41,27.41,0,0,1-4.53,2.54ZM126.35,30.7h-3.67a18.4,18.4,0,0,1-2.61,7.07h12.66a25,25,0,0,0-2.37-3,2.34,2.34,0,0,1-.34.55,3.18,3.18,0,0,1-2.37,1.2,20.37,20.37,0,0,1-3.67.14,8.44,8.44,0,0,0-1.06-3.74,20.13,20.13,0,0,0,2.16.1,1.14,1.14,0,0,0,.89-.31A5,5,0,0,0,126.35,30.7Zm5.77-5.8h-8.89q0,.58-.07,1.89h8.07l-.1,1.44a40.84,40.84,0,0,1-.41,5.32,18.51,18.51,0,0,0,3.91-2A27.47,27.47,0,0,1,132.12,24.9Zm-7.45,16.75v3.64h1.75V41.64Zm8.17,3.64V41.64h-1.79v3.64Zm6.45-3.64h-1.82v3.64h1.82Z"/></g></g></svg>