<svg xmlns="http://www.w3.org/2000/svg" viewBox="0 0 404.9 23.19"><defs><style>.cls-1{fill:#fff;}.cls-2{fill:#f26421;}</style></defs><title>Asset 2</title><g id="Layer_2" data-name="Layer 2"><g id="圖層_1" data-name="圖層 1"><path class="cls-1" d="M265.82,7.78c-1.57-1.75-3.08-2.59-5-2.59-3.41,0-5.67,2.59-5.67,6.24,0,3.32,2.23,6,5.67,6,1.9,0,3.41-.84,5-2.59v6.42a12.46,12.46,0,0,1-5.58,1.36c-6.36,0-10.95-4.79-10.95-11.31S253.88,0,260.24,0a12.46,12.46,0,0,1,5.58,1.36Z"/><path class="cls-1" d="M287.92,19.33a11.75,11.75,0,0,1-8.17,3.32,11.88,11.88,0,0,1-7.33-2.59,10.93,10.93,0,0,1-4.19-8.72,10.94,10.94,0,0,1,3.38-8,11.69,11.69,0,0,1,16.31,0,11,11,0,0,1,3.35,8A11,11,0,0,1,287.92,19.33Zm-2.53-8c0-3.5-2.35-6.33-5.64-6.33s-5.64,2.8-5.64,6.33,2.2,6.33,5.64,6.33S285.39,14.87,285.39,11.34Z"/><path class="cls-1" d="M314.18,22.07l-1.27-9.32c-.18-1.3-.33-2.89-.45-4.82a28.63,28.63,0,0,1-1,4l-2.92,10.1h-3.92L301.7,12a28.91,28.91,0,0,1-1-4c-.12,1.93-.3,3.53-.48,4.82L299,22.07h-5.46L296.81.51h5.82l3.26,11.13a17.58,17.58,0,0,1,.69,2.93,16.74,16.74,0,0,1,.66-3L310.53.51h5.82l3.32,21.56Z"/><path class="cls-1" d="M322.83,22.07V.51h6.57c2.71,0,4.86,0,6.54,1.12a7.07,7.07,0,0,1,3,6.21c0,2.87-1.06,5-3,6.15a9.71,9.71,0,0,1-5.16,1h-2.47v7.12Zm6.63-11.85c2.5,0,3.8-.48,3.8-2.56s-1.36-2.5-3.74-2.5h-1.18v5.07Z"/><path class="cls-1" d="M345.32.51h7.36l7.45,21.56h-5.85l-1.09-3.86h-8.35l-1.12,3.86h-5.85ZM352,14l-2.2-7.12q-.14-.5-.72-2.89c-.39,1.6-.66,2.56-.75,2.89L346.11,14Z"/><path class="cls-1" d="M362.17.51h5.67L376,11.61a32.29,32.29,0,0,1,2,3.8,35.69,35.69,0,0,1-.33-4.25V.51h5.64V22.07h-5.64l-8.14-11.13a30.44,30.44,0,0,1-2-3.77,35.69,35.69,0,0,1,.33,4.25V22.07h-5.67Z"/><path class="cls-1" d="M391.69,12.24,384.12.51h6.78l2.89,5.55a6.21,6.21,0,0,1,.72,1.84,5.91,5.91,0,0,1,.75-1.84L398.14.51h6.75l-7.54,11.73v9.83h-5.67Z"/><path class="cls-1" d="M20.62,1.45h6.51c3,0,5.28,0,7.12,1.45a6.4,6.4,0,0,1,2.41,5.28c0,3.35-1.69,5.49-4.82,6.15L37.72,23H31.08l-4.95-8.44V23H20.62Zm6.6,10.19c2.47,0,3.65-.78,3.65-2.68,0-2.26-1.12-3-3.56-3H26.14v5.67Z"/><path class="cls-1" d="M39.95,1.45H53.15V6.18H45.68V9.92h7.06v4.61H45.68v3.65h7.48V23H39.95Z"/><path class="cls-1" d="M62,1.45h7.36L76.76,23H70.91l-1.09-3.86H61.47L60.36,23H54.51ZM68.59,15l-2.2-7.12q-.14-.5-.72-2.89c-.39,1.6-.66,2.56-.75,2.89L62.74,15Z"/><path class="cls-1" d="M80.65,6.54h-4.8V1.45h15.5v5.1H86.53V23H80.65Z"/><path class="cls-1" d="M94.21,1.45h13.21V6.18H99.94V9.92H107v4.61H99.94v3.65h7.48V23H94.21Z"/><path class="cls-2" d="M14,1.27A3.64,3.64,0,0,1,11,2.9a3.64,3.64,0,0,1-3-1.63A11.3,11.3,0,0,0,5.36,2.33,3.64,3.64,0,0,1,1.06,6.62,11.3,11.3,0,0,0,0,9.19a3.64,3.64,0,0,1,1.63,3,3.64,3.64,0,0,1-1.63,3,11.3,11.3,0,0,0,1.06,2.57,3.64,3.64,0,0,1,4.29,4.29,11.3,11.3,0,0,0,2.57,1.06,3.64,3.64,0,0,1,6.07,0,11.25,11.25,0,0,0,1.92-.75V15.14a5.32,5.32,0,0,1-4.1,2.14,4.66,4.66,0,0,1-4.67-4.94c0-3,1.86-5.14,4.67-5.14a5.32,5.32,0,0,1,4.1,2.14V2A11.25,11.25,0,0,0,14,1.27Z"/><path class="cls-1" d="M117.65,18.43c1.63,0,2.68-1,2.68-2.23,0-1.72-1.18-2.23-3.62-2.87-3.89-1-5.79-2.59-5.79-6,0-4,2.93-7,7.45-7a10.89,10.89,0,0,1,6.39,1.93l-1.84,4.22a6.54,6.54,0,0,0-4.13-1.72c-1.45,0-2.38.78-2.38,1.81,0,1.54,1.48,1.87,3.44,2.38,3.83,1,5.94,2.44,5.94,6.42,0,4.49-3.2,7.6-8.26,7.6a10.34,10.34,0,0,1-7.66-3.17l2.65-4.37C114.24,17.43,115.93,18.43,117.65,18.43Z"/><path class="cls-1" d="M134.8.87v11.7c0,3.83.69,5.49,3.74,5.49,3.59,0,3.74-2.23,3.74-6.85V.87h5.85V13.69c0,6.51-2.74,9.32-9.59,9.32-3.65,0-6.18-.84-7.72-2.62-1.72-2-1.87-4.49-1.87-7.87V.87Z"/><path class="cls-1" d="M190.46.87h13.21V5.61h-7.48V9.35h7.06V14h-7.06v3.65h7.48v4.82H190.46Z"/><path class="cls-1" d="M213.64,18.43c1.63,0,2.68-1,2.68-2.23,0-1.72-1.18-2.23-3.62-2.87-3.89-1-5.79-2.59-5.79-6,0-4,2.93-7,7.45-7a10.89,10.89,0,0,1,6.39,1.93l-1.84,4.22a6.54,6.54,0,0,0-4.13-1.72c-1.45,0-2.38.78-2.38,1.81,0,1.54,1.48,1.87,3.44,2.38,3.83,1,5.94,2.44,5.94,6.42,0,4.49-3.2,7.6-8.26,7.6a10.34,10.34,0,0,1-7.66-3.17l2.65-4.37C210.24,17.43,211.92,18.43,213.64,18.43Z"/><path class="cls-1" d="M231.16,18.43c1.63,0,2.68-1,2.68-2.23,0-1.72-1.18-2.23-3.62-2.87-3.89-1-5.79-2.59-5.79-6,0-4,2.93-7,7.45-7a10.89,10.89,0,0,1,6.39,1.93l-1.84,4.22a6.54,6.54,0,0,0-4.13-1.72c-1.45,0-2.38.78-2.38,1.81,0,1.54,1.48,1.87,3.44,2.38,3.83,1,5.94,2.44,5.94,6.42,0,4.49-3.2,7.6-8.26,7.6a10.34,10.34,0,0,1-7.66-3.17L226,15.47C227.75,17.43,229.44,18.43,231.16,18.43Z"/><path class="cls-2" d="M165.53.36a3.64,3.64,0,0,1-3,1.63,3.64,3.64,0,0,1-3-1.63,11.3,11.3,0,0,0-2.57,1.06,3.64,3.64,0,0,1-4.29,4.29,11.3,11.3,0,0,0-1.06,2.57,3.64,3.64,0,0,1,0,6.07,11.3,11.3,0,0,0,1.06,2.57,3.64,3.64,0,0,1,4.29,4.29,11.3,11.3,0,0,0,2.57,1.06,3.64,3.64,0,0,1,6.07,0,11.25,11.25,0,0,0,1.92-.75V14.23a5.32,5.32,0,0,1-4.1,2.14,4.66,4.66,0,0,1-4.67-4.94c0-3,1.86-5.14,4.67-5.14a5.32,5.32,0,0,1,4.1,2.14V1.11A11.25,11.25,0,0,0,165.53.36Z"/><path class="cls-2" d="M184.71.36a3.64,3.64,0,0,1-3,1.63,3.64,3.64,0,0,1-3-1.63,11.3,11.3,0,0,0-2.57,1.06,3.64,3.64,0,0,1-4.29,4.29,11.3,11.3,0,0,0-1.06,2.57,3.64,3.64,0,0,1,0,6.07,11.3,11.3,0,0,0,1.06,2.57,3.64,3.64,0,0,1,4.29,4.29,11.3,11.3,0,0,0,2.57,1.06,3.64,3.64,0,0,1,6.07,0,11.25,11.25,0,0,0,1.92-.75V14.23a5.32,5.32,0,0,1-4.1,2.14,4.66,4.66,0,0,1-4.67-4.94c0-3,1.86-5.14,4.67-5.14a5.32,5.32,0,0,1,4.1,2.14V1.11A11.25,11.25,0,0,0,184.71.36Z"/></g></g></svg>