<svg xmlns="http://www.w3.org/2000/svg" viewBox="0 0 265.57 136.65"><defs><style>.cls-1{fill:#231815;}.cls-2{fill:#f36421;}</style></defs><title>Asset 4</title><g id="Layer_2" data-name="Layer 2"><g id="圖層_1" data-name="圖層 1"><path class="cls-1" d="M35,.31H46.08c5.07,0,9,.05,12.08,2.46a10.86,10.86,0,0,1,4.1,9c0,5.68-2.87,9.32-8.19,10.45l10,14.75H52.79l-8.4-14.34V36.92H35ZM46.24,17.62c4.2,0,6.2-1.33,6.2-4.56,0-3.84-1.89-5.07-6-5.07h-2v9.63Z"/><path class="cls-1" d="M67.84.31H90.27v8H77.57V14.7h12v7.84h-12v6.2h12.7v8.19H67.84Z"/><path class="cls-1" d="M105.21.31h12.5l12.65,36.61h-9.94l-1.84-6.55H104.4l-1.89,6.55H92.57Zm11.27,22.94-3.74-12.09q-.23-.85-1.23-4.92c-.67,2.71-1.13,4.35-1.28,4.92l-3.69,12.09Z"/><path class="cls-1" d="M137,9h-8.14V.31h26.32V9h-8.19v28H137Z"/><path class="cls-1" d="M160,.31h22.43v8h-12.7V14.7h12v7.84h-12v6.2h12.7v8.19H160Z"/><path class="cls-1" d="M13.21,79.49c2.77,0,4.56-1.64,4.56-3.79,0-2.92-2-3.79-6.15-4.87C5,69.09,1.79,66.43,1.79,60.69c0-6.81,5-11.88,12.65-11.88A18.49,18.49,0,0,1,25.3,52.09l-3.12,7.17a11.1,11.1,0,0,0-7-2.92c-2.46,0-4,1.33-4,3.07,0,2.61,2.51,3.17,5.84,4C23.45,65.2,27,67.61,27,74.37,27,82,21.61,87.27,13,87.27c-5.17,0-9.06-1.64-13-5.38l4.51-7.43C7.43,77.8,10.29,79.49,13.21,79.49Z"/><path class="cls-1" d="M42.34,49.68V69.55c0,6.5,1.18,9.32,6.35,9.32,6.1,0,6.35-3.79,6.35-11.62V49.68H65V71.45c0,11.06-4.66,15.82-16.29,15.82-6.2,0-10.5-1.43-13.11-4.46-2.92-3.33-3.17-7.63-3.17-13.37V49.68Z"/><path class="cls-1" d="M136.85,49.68h22.43v8h-12.7v6.35h12v7.84h-12v6.2h12.7V86.3H136.85Z"/><path class="cls-1" d="M176.23,79.49c2.77,0,4.56-1.64,4.56-3.79,0-2.92-2-3.79-6.15-4.87-6.61-1.74-9.83-4.4-9.83-10.14,0-6.81,5-11.88,12.65-11.88a18.49,18.49,0,0,1,10.86,3.28l-3.12,7.17a11.1,11.1,0,0,0-7-2.92c-2.46,0-4,1.33-4,3.07,0,2.61,2.51,3.17,5.84,4,6.5,1.74,10.09,4.15,10.09,10.91,0,7.63-5.43,12.91-14,12.91-5.17,0-9.06-1.64-13-5.38l4.51-7.43C170.44,77.8,173.31,79.49,176.23,79.49Z"/><path class="cls-1" d="M206,79.49c2.77,0,4.56-1.64,4.56-3.79,0-2.92-2-3.79-6.15-4.87-6.61-1.74-9.83-4.4-9.83-10.14,0-6.81,5-11.88,12.65-11.88a18.49,18.49,0,0,1,10.86,3.28l-3.12,7.17a11.1,11.1,0,0,0-7-2.92c-2.46,0-4,1.33-4,3.07,0,2.61,2.51,3.17,5.84,4,6.5,1.74,10.09,4.15,10.09,10.91,0,7.63-5.43,12.91-14,12.91-5.17,0-9.06-1.64-13-5.38l4.51-7.43C200.19,77.8,203.05,79.49,206,79.49Z"/><path class="cls-1" d="M29.39,111.4c-2.66-3-5.22-4.4-8.45-4.4-5.79,0-9.63,4.4-9.63,10.6,0,5.63,3.79,10.19,9.63,10.19,3.23,0,5.79-1.43,8.45-4.4v10.91a21.17,21.17,0,0,1-9.47,2.3c-10.81,0-18.59-8.14-18.59-19.2s7.78-19.2,18.59-19.2a21.17,21.17,0,0,1,9.47,2.3Z"/><path class="cls-1" d="M66.92,131A20,20,0,0,1,53,136.65a20.17,20.17,0,0,1-12.44-4.4,18.94,18.94,0,0,1-1.38-28.37,19.85,19.85,0,0,1,27.71,0,19,19,0,0,1,0,27.14Zm-4.3-13.57c0-5.94-4-10.75-9.58-10.75s-9.58,4.76-9.58,10.75S47.21,128.2,53,128.2C58.73,128.2,62.62,123.44,62.62,117.44Z"/><path class="cls-1" d="M111.52,135.68l-2.15-15.82c-.31-2.2-.56-4.92-.77-8.19a48.63,48.63,0,0,1-1.69,6.86l-5,17.16H95.28l-5-17.16a49.09,49.09,0,0,1-1.69-6.86c-.2,3.28-.51,6-.82,8.19l-2.15,15.82H76.39L82,99.06H91.9L97.43,118a29.85,29.85,0,0,1,1.18,5,28.43,28.43,0,0,1,1.13-5l5.58-18.84h9.88l5.63,36.61Z"/><path class="cls-1" d="M126.2,135.68V99.06h11.16c4.61,0,8.25.05,11.11,1.89,3.23,2,5.12,5.84,5.12,10.55,0,4.87-1.79,8.5-5.07,10.45-2.51,1.49-5.33,1.64-8.76,1.64h-4.2v12.09Zm11.27-20.13c4.25,0,6.45-.82,6.45-4.35s-2.3-4.25-6.35-4.25h-2v8.6Z"/><path class="cls-1" d="M164.4,99.06h12.5l12.65,36.61h-9.94l-1.84-6.55H163.58l-1.89,6.55h-9.94ZM175.67,122l-3.74-12.09q-.23-.85-1.23-4.92c-.67,2.71-1.13,4.35-1.28,4.92L165.73,122Z"/><path class="cls-1" d="M193,99.06h9.63l13.83,18.84a54.84,54.84,0,0,1,3.33,6.45,60.6,60.6,0,0,1-.56-7.22V99.06h9.58v36.61h-9.58l-13.83-18.9a51.7,51.7,0,0,1-3.33-6.4,60.6,60.6,0,0,1,.56,7.22v18.08H193Z"/><path class="cls-1" d="M243.14,119,230.29,99.06h11.52l4.92,9.42a10.55,10.55,0,0,1,1.23,3.12,10,10,0,0,1,1.28-3.12l4.86-9.42h11.47L252.77,119v16.69h-9.63Z"/><path class="cls-2" d="M23.77,0a6.17,6.17,0,0,1-5.16,2.78A6.17,6.17,0,0,1,13.46,0,19.2,19.2,0,0,0,9.1,1.81,6.18,6.18,0,0,1,1.81,9.1,19.18,19.18,0,0,0,0,13.46a6.17,6.17,0,0,1,2.78,5.16A6.17,6.17,0,0,1,0,23.77a19.18,19.18,0,0,0,1.81,4.36A6.18,6.18,0,0,1,9.1,35.42a19.2,19.2,0,0,0,4.36,1.81,6.18,6.18,0,0,1,10.31,0A19.11,19.11,0,0,0,27,36V23.55c-2.19,2.45-4.3,3.63-7,3.63-4.81,0-7.93-3.76-7.93-8.4,0-5.11,3.16-8.74,7.93-8.74,2.66,0,4.77,1.18,7,3.63V1.27A19.11,19.11,0,0,0,23.77,0Z"/><path class="cls-2" d="M95.07,49.1a6.18,6.18,0,0,1-10.31,0,19.2,19.2,0,0,0-4.36,1.81A6.18,6.18,0,0,1,73.1,58.2a19.18,19.18,0,0,0-1.81,4.36,6.18,6.18,0,0,1,0,10.31,19.18,19.18,0,0,0,1.81,4.36,6.18,6.18,0,0,1,7.29,7.29,19.2,19.2,0,0,0,4.36,1.81,6.18,6.18,0,0,1,10.31,0,19.11,19.11,0,0,0,3.26-1.27V72.65c-2.19,2.45-4.3,3.63-7,3.63-4.81,0-7.93-3.76-7.93-8.4,0-5.11,3.16-8.74,7.93-8.74,2.66,0,4.77,1.18,7,3.63V50.37A19.11,19.11,0,0,0,95.07,49.1Z"/><path class="cls-2" d="M127.8,49.1a6.18,6.18,0,0,1-10.31,0,19.2,19.2,0,0,0-4.36,1.81,6.18,6.18,0,0,1-7.29,7.29A19.18,19.18,0,0,0,104,62.56a6.18,6.18,0,0,1,0,10.31,19.18,19.18,0,0,0,1.81,4.36,6.18,6.18,0,0,1,7.29,7.29,19.2,19.2,0,0,0,4.36,1.81,6.18,6.18,0,0,1,10.31,0,19.11,19.11,0,0,0,3.26-1.27V72.65c-2.19,2.45-4.3,3.63-7,3.63-4.81,0-7.93-3.76-7.93-8.4,0-5.11,3.16-8.74,7.93-8.74,2.66,0,4.77,1.18,7,3.63V50.37A19.11,19.11,0,0,0,127.8,49.1Z"/></g></g></svg>