<?xml version="1.0" encoding="utf-8"?>
<!-- Generator: Adobe Illustrator 21.1.0, SVG Export Plug-In . SVG Version: 6.00 Build 0)  -->
<svg version="1.1" id="Layer_1" xmlns="http://www.w3.org/2000/svg" xmlns:xlink="http://www.w3.org/1999/xlink" x="0px" y="0px"
	 viewBox="0 0 48.7 23.9" style="enable-background:new 0 0 48.7 23.9;" xml:space="preserve">
<style type="text/css">
	.st0{fill:#E9631F;}
	.st1{fill:#FFFFFF;}
</style>
<title>Asset 2</title>
<g id="Layer_2">
	<g id="圖層_1">
		<path class="st0" d="M48.7,3.5v6.8l-22.3,13c-1.2,0.7-2.8,0.7-4,0L0,10.3V3.5C0,1.6,1.6,0,3.5,0c0,0,0,0,0,0h41.6
			C47.1,0,48.7,1.6,48.7,3.5z"/>
		<path class="st1" d="M31.9,13.1c-1.2-0.8-1.5-2.3-0.7-3.5c0.2-0.3,0.4-0.5,0.7-0.7c-0.2-0.6-0.4-1.2-0.7-1.8l0,0
			c-1.4,0.3-2.7-0.6-3-1.9c-0.1-0.4-0.1-0.7,0-1.1c-0.6-0.3-1.2-0.6-1.8-0.7c-0.8,1.2-2.3,1.5-3.5,0.7c-0.3-0.2-0.5-0.4-0.7-0.7
			c-0.6,0.2-1.2,0.4-1.8,0.7l0,0c0.3,1.4-0.6,2.7-1.9,3c-0.4,0.1-0.7,0.1-1.1,0l0,0c-0.3,0.6-0.6,1.2-0.7,1.8
			c1.2,0.8,1.5,2.3,0.7,3.5c-0.2,0.3-0.4,0.5-0.7,0.7c0.2,0.6,0.4,1.2,0.7,1.8c1.4-0.3,2.7,0.6,3,1.9c0.1,0.4,0.1,0.7,0,1.1
			c0.6,0.3,1.2,0.6,1.8,0.7c0.8-1.2,2.3-1.5,3.5-0.7c0.3,0.2,0.5,0.4,0.7,0.7c0.6-0.2,1.2-0.4,1.8-0.7c-0.3-1.4,0.6-2.7,1.9-3
			c0.4-0.1,0.7-0.1,1.1,0C31.5,14.4,31.8,13.8,31.9,13.1z M28.9,12.3c-0.1,0.4-0.2,0.7-0.4,1.1c-0.8-0.2-1.6,0.4-1.8,1.2
			c0,0.2,0,0.4,0,0.6c-0.3,0.2-0.7,0.3-1.1,0.4c-0.5-0.7-1.4-0.9-2.1-0.4c-0.2,0.1-0.3,0.3-0.4,0.4c-0.4-0.1-0.8-0.3-1.1-0.4l0,0
			c0.2-0.8-0.4-1.6-1.2-1.8c-0.2,0-0.4,0-0.6,0c-0.2-0.3-0.3-0.7-0.4-1.1c0.7-0.5,0.9-1.4,0.4-2.1C20.1,10,20,9.9,19.8,9.8
			C19.9,9.4,20,9,20.2,8.7l0,0C21,8.9,21.8,8.3,22,7.5c0-0.2,0-0.4,0-0.6c0.3-0.2,0.7-0.3,1.1-0.4c0.5,0.7,1.4,0.9,2.1,0.4
			c0.2-0.1,0.3-0.3,0.4-0.4c0.4,0.1,0.7,0.2,1.1,0.4l0,0c-0.2,0.8,0.4,1.6,1.2,1.8c0.2,0,0.4,0,0.6,0l0,0c0.2,0.3,0.3,0.7,0.4,1.1
			c-0.7,0.5-0.9,1.4-0.4,2.1C28.6,12.1,28.7,12.2,28.9,12.3L28.9,12.3z"/>
		<circle class="st1" cx="24.3" cy="11.1" r="2.5"/>
	</g>
</g>
</svg>
