<svg xmlns="http://www.w3.org/2000/svg" viewBox="0 0 50.63 50.63"><defs><style>.cls-1{fill:#f36421;}</style></defs><title>Asset 9</title><g id="Layer_2" data-name="Layer 2"><g id="layer1"><path class="cls-1" d="M50.63,32.33a8.4,8.4,0,0,1,0-14,26.1,26.1,0,0,0-2.46-5.93h0a8.4,8.4,0,0,1-9.92-9.92A26.1,26.1,0,0,0,32.33,0a8.4,8.4,0,0,1-7,3.77A8.4,8.4,0,0,1,18.3,0a26.1,26.1,0,0,0-5.93,2.46h0a8.4,8.4,0,0,1-9.92,9.92h0A26.1,26.1,0,0,0,0,18.3a8.4,8.4,0,0,1,3.77,7,8.4,8.4,0,0,1-3.77,7,26.1,26.1,0,0,0,2.46,5.93,8.4,8.4,0,0,1,9.92,9.92,26.1,26.1,0,0,0,5.93,2.46,8.4,8.4,0,0,1,14,0,26.1,26.1,0,0,0,5.93-2.46,8.4,8.4,0,0,1,9.92-9.92A26.1,26.1,0,0,0,50.63,32.33ZM40.47,29.52A15.63,15.63,0,0,1,39,33.07,5,5,0,0,0,33.07,39a15.63,15.63,0,0,1-3.55,1.47,5,5,0,0,0-8.4,0A15.63,15.63,0,0,1,17.57,39h0a5,5,0,0,0-5.94-5.94,15.63,15.63,0,0,1-1.47-3.55,5,5,0,0,0,0-8.4,15.63,15.63,0,0,1,1.47-3.55h0a5,5,0,0,0,5.94-5.94,15.63,15.63,0,0,1,3.55-1.47,5,5,0,0,0,8.4,0,15.63,15.63,0,0,1,3.55,1.47h0A5,5,0,0,0,39,17.57h0a15.62,15.62,0,0,1,1.47,3.55,5,5,0,0,0,0,8.4Z"/><circle class="cls-1" cx="25.08" cy="25.66" r="8.22"/></g></g></svg>