<svg xmlns="http://www.w3.org/2000/svg" viewBox="0 0 22.65 22.65"><defs><style>.cls-1{fill:#e9631f;}.cls-2{fill:#fff;}</style></defs><title>Asset 9</title><g id="Layer_2" data-name="Layer 2"><g id="圖層_1" data-name="圖層 1"><circle class="cls-1" cx="11.33" cy="11.33" r="11.33"/><g id="Q0JQWm"><path class="cls-2" d="M4.75,11.77V11c0-.23.08-.47.14-.7A5.38,5.38,0,0,1,7.46,7a7.1,7.1,0,0,1,4.06-1,6.9,6.9,0,0,1,4.17,1.53,5,5,0,0,1,1.74,2.57c.08.28.12.57.18.86v.8c0,.21-.07.42-.11.63a5.31,5.31,0,0,1-1.66,2.81,23,23,0,0,1-4.17,3.05,2.14,2.14,0,0,1-.63.23.55.55,0,0,1-.71-.47,2.29,2.29,0,0,1,0-.74c.08-.47.1-.47-.37-.56a6.92,6.92,0,0,1-3-1.18,5.28,5.28,0,0,1-2.18-3.32ZM11,11.16l.12.16.94,1.3a.31.31,0,0,0,.36.14.29.29,0,0,0,.22-.3c0-.77,0-1.53,0-2.3a.3.3,0,0,0-.31-.32.31.31,0,0,0-.29.33c0,.36,0,.72,0,1.08q0,.12,0,.23c-.21-.24-.39-.48-.56-.73L11,10a.29.29,0,0,0-.34-.12.27.27,0,0,0-.22.27q0,1.15,0,2.3a.28.28,0,0,0,.29.28.3.3,0,0,0,.31-.33C11,12,11,11.62,11,11.16Zm2.67-.75h1.14a.31.31,0,0,0,.31-.31.3.3,0,0,0-.32-.29H13.47c-.31,0-.41.1-.41.41q0,1.06,0,2.12a.94.94,0,0,0,0,.13.29.29,0,0,0,.29.27h1.52a.29.29,0,0,0,.29-.3.3.3,0,0,0-.29-.3H13.68v-.55h.87a.32.32,0,0,0,.35-.31c0-.18-.14-.29-.37-.29h-.86ZM7.95,12.18c0-.07,0-.13,0-.19q0-.85,0-1.7a1.24,1.24,0,0,0,0-.18.3.3,0,0,0-.29-.27.29.29,0,0,0-.29.26c0,.18,0,.35,0,.53,0,.58,0,1.17,0,1.75,0,.29.11.39.39.39h1c.21,0,.35-.12.35-.29s-.13-.3-.35-.31Zm2-.87c0-.37,0-.74,0-1.11s-.12-.36-.3-.36-.3.13-.3.36q0,1.11,0,2.21c0,.23.1.36.3.36s.3-.12.3-.35S9.91,11.68,9.91,11.31Z"/></g></g></g></svg>