<svg xmlns="http://www.w3.org/2000/svg" viewBox="0 0 22.65 22.65"><defs><style>.cls-1{fill:#e9631f;}.cls-2{fill:#fff;}</style></defs><title>Asset 6</title><g id="Layer_2" data-name="Layer 2"><g id="圖層_1" data-name="圖層 1"><circle class="cls-1" cx="11.33" cy="11.33" r="11.33"/><g id="ymjJL5"><path class="cls-2" d="M4.5,14.06V8.59c0-.16.05-.31.06-.47A3.63,3.63,0,0,1,7.49,4.66c.36-.08.74-.11,1.1-.16h5.46c.16,0,.31.05.47.06A3.61,3.61,0,0,1,18,7.43c.1.4.13.82.19,1.23v5.26c0,.2-.06.4-.07.6A3.6,3.6,0,0,1,15.23,18c-.43.1-.87.13-1.3.19H8.66c-.18,0-.36-.06-.53-.07a3.64,3.64,0,0,1-3.47-3C4.58,14.78,4.55,14.41,4.5,14.06Zm6.79,2.81h0c1,0,2,0,3,0A2.51,2.51,0,0,0,16.26,16a2.6,2.6,0,0,0,.6-1.71c0-2,0-3.91,0-5.87a2.45,2.45,0,0,0-2.61-2.63c-1.67-.05-3.34-.05-5-.05a7.6,7.6,0,0,0-1.53.14A2.35,2.35,0,0,0,5.8,8.31c0,2,0,4,0,6a2.44,2.44,0,0,0,2.59,2.58C9.35,16.89,10.32,16.86,11.29,16.86Z"/><path class="cls-2" d="M7.82,11.31a3.5,3.5,0,1,1,3.49,3.52A3.48,3.48,0,0,1,7.82,11.31Zm3.49,2.28A2.26,2.26,0,1,0,9.06,11.3,2.24,2.24,0,0,0,11.31,13.59Z"/><path class="cls-2" d="M15.78,7.67a.82.82,0,0,1-.8.84.85.85,0,0,1-.84-.81A.82.82,0,0,1,15,6.87.79.79,0,0,1,15.78,7.67Z"/></g></g></g></svg>