<svg xmlns="http://www.w3.org/2000/svg" viewBox="0 0 22.65 22.65"><defs><style>.cls-1{fill:#e9631f;}.cls-2{fill:#fff;}</style></defs><title>Asset 5</title><g id="Layer_2" data-name="Layer 2"><g id="圖層_1" data-name="圖層 1"><circle class="cls-1" cx="11.33" cy="11.33" r="11.33"/><g id="NrQrJs"><path class="cls-2" d="M14,5.38l-1,1.08a.31.31,0,0,1-.2.08H11.58l.13.11a2.83,2.83,0,0,1,1.16,1.86,3.41,3.41,0,0,1,0,1.48,3.22,3.22,0,0,1-.66,1.3,8.61,8.61,0,0,1-1.06,1,2.15,2.15,0,0,0-.49.54.88.88,0,0,0,.19,1.26c.33.32.69.59,1,.88a6.71,6.71,0,0,1,1.49,1.44,2.85,2.85,0,0,1,.45,1.29,3.59,3.59,0,0,1-.14,1.75,3.49,3.49,0,0,1-.78,1.19,4.81,4.81,0,0,1-2.17,1.26,15.91,15.91,0,0,1-1.59.29L9,22.2H8l-.86-.11a6.15,6.15,0,0,1-2.79-1,2.53,2.53,0,0,1-.94-1.18,5.26,5.26,0,0,1-.15-.61V19s0-.1,0-.14A7.31,7.31,0,0,1,3.51,18,3.87,3.87,0,0,1,4.8,16.37a4.9,4.9,0,0,1,2.41-1c.55-.07,1.11-.07,1.66-.09h.19a2,2,0,0,1-.68-1A2,2,0,0,1,8.6,13c-.36,0-.71,0-1-.05a3.45,3.45,0,0,1-1.63-.58,3.31,3.31,0,0,1-1.25-1.57,3.84,3.84,0,0,1-.21-2.2A3.48,3.48,0,0,1,5.3,7,4.74,4.74,0,0,1,7.75,5.54c.29-.07.59-.11.88-.16Zm-5.32,16a6.19,6.19,0,0,0,2-.29,2.36,2.36,0,0,0,1.69-1.81,2,2,0,0,0-.63-2.07c-.45-.37-.93-.69-1.4-1A.8.8,0,0,0,10,16a4.14,4.14,0,0,0-1.18-.18,4,4,0,0,0-3,1.18,2.17,2.17,0,0,0-.67,1.72A2.54,2.54,0,0,0,6.3,20.69,3.87,3.87,0,0,0,8.64,21.37ZM11,10a4.81,4.81,0,0,0-.36-1.82A3.28,3.28,0,0,0,9,6.36a1.76,1.76,0,0,0-1.76.1A2.13,2.13,0,0,0,6.3,8a3.76,3.76,0,0,0,1.23,3.68,2.42,2.42,0,0,0,1.52.62,1.66,1.66,0,0,0,1.61-.84A2.77,2.77,0,0,0,11,10Z"/><path class="cls-2" d="M20.08,9H18c-.19,0-.19,0-.19.19v1.92s0,.1,0,.16H16.65s0-.09,0-.14c0-.66,0-1.33,0-2,0-.11,0-.15-.14-.15h-2c-.12,0-.15,0-.15-.15q0-.42,0-.83c0-.13,0-.17.16-.17h2.13V5.61h1.14V7.89h2.29Z"/></g></g></g></svg>