<svg xmlns="http://www.w3.org/2000/svg" viewBox="0 0 22.65 22.65"><defs><style>.cls-1{fill:#e9631f;}.cls-2{fill:#fff;}</style></defs><title>Asset 7</title><g id="Layer_2" data-name="Layer 2"><g id="圖層_1" data-name="圖層 1"><circle class="cls-1" cx="11.33" cy="11.33" r="11.33"/><path class="cls-2" d="M16.36,8.08l1.35-.37,0,0L17,8.61a.52.52,0,0,1-.13.12c-.32.16-.37.43-.37.77a7.6,7.6,0,0,1-1.32,4.14,7,7,0,0,1-2.34,2.24,7.49,7.49,0,0,1-5.22.9A7.2,7.2,0,0,1,5,15.8l-.08-.07a5.42,5.42,0,0,0,3.85-1.1,2.69,2.69,0,0,1-2.44-1.81h.56a3.14,3.14,0,0,0,.52-.08,2.73,2.73,0,0,1-2-2.6l1.1.31,0,0a2.74,2.74,0,0,1-.76-3.54A7.67,7.67,0,0,0,11.2,9.67c0-.07,0-.13,0-.19a2.66,2.66,0,0,1,2.6-3.08,2.61,2.61,0,0,1,1.86.74.22.22,0,0,0,.25.06l1.31-.49.19-.09a1.9,1.9,0,0,1-.42.8,6.25,6.25,0,0,1-.62.61Z"/></g></g></svg>