<svg xmlns="http://www.w3.org/2000/svg" viewBox="0 0 22.65 22.65"><defs><style>.cls-1{fill:#e9631f;}.cls-2{fill:#fff;}</style></defs><title>Asset 8</title><g id="Layer_2" data-name="Layer 2"><g id="圖層_1" data-name="圖層 1"><circle class="cls-1" cx="11.33" cy="11.33" r="11.33"/><path class="cls-2" d="M14.61,5.65v2.1H13.44a1.58,1.58,0,0,0-.63.37.73.73,0,0,0-.19.41c0,.31,0,.62,0,.94h2a16.69,16.69,0,0,1,0,2.11h-2v6.57a26.9,26.9,0,0,1-2.79,0c0-.36,0-.73,0-1.09s0-.74,0-1.1V11.58H8V9.48H9.81c0-.08,0-.14,0-.2,0-.32,0-.64,0-1a2.68,2.68,0,0,1,.12-.81,2.07,2.07,0,0,1,.56-1,6,6,0,0,1,.45-.4,2.06,2.06,0,0,1,.46-.25l.28-.1a2.56,2.56,0,0,0,.42-.07,1.3,1.3,0,0,1,.41,0h2.1Z"/></g></g></svg>