<svg xmlns="http://www.w3.org/2000/svg" viewBox="0 0 74.57 86.9"><defs><style>.cllllllls-1,.cllllllls-2,.cllllllls-3{fill:none;stroke:#f36421;}.cllllllls-1,.cllllllls-2{stroke-miterlimit:10;}.cllllllls-1{stroke-width:2.8px;}.cllllllls-2,.cllllllls-3{stroke-width:3px;}.cllllllls-3{stroke-linecap:round;stroke-linejoin:round;}</style></defs><title>Asset 4</title><g id="Layer_2" data-name="Layer 2"><g id="圖層_1" data-name="圖層 1"><path class="cllllllls-1" d="M62,1.4V26.81a24.57,24.57,0,0,1-24.5,24.5h0A24.57,24.57,0,0,1,13,26.81V1.4Z"/><path class="cllllllls-2" d="M62.06,13.4h9.42a1.59,1.59,0,0,1,1.59,1.68A18.53,18.53,0,0,1,61.55,31.6"/><path class="cllllllls-2" d="M12.51,13.4H3.09A1.59,1.59,0,0,0,1.5,15.08,18.53,18.53,0,0,0,13,31.6"/><path class="cllllllls-2" d="M41.28,20.59l5.38.81a.79.79,0,0,1,.43,1.34l-3.91,3.78a.79.79,0,0,0-.23.69l.89,5.36a.79.79,0,0,1-1.14.82l-4.8-2.55a.79.79,0,0,0-.73,0l-4.82,2.51a.79.79,0,0,1-1.14-.83l.95-5.35a.79.79,0,0,0-.22-.7L28,22.64a.79.79,0,0,1,.44-1.34l5.38-.76a.79.79,0,0,0,.59-.43l2.43-4.86a.79.79,0,0,1,1.41,0l2.38,4.89A.79.79,0,0,0,41.28,20.59Z"/><rect class="cllllllls-2" x="17.06" y="71.57" width="40.67" height="13.83" rx="2.75" ry="2.75"/><path class="cllllllls-2" d="M24.73,71.57V66.32a2.75,2.75,0,0,1,2.75-2.75H47.31a2.75,2.75,0,0,1,2.75,2.75v5.25"/><line class="cllllllls-3" x1="30.06" y1="78.4" x2="45.06" y2="78.4"/><path class="cllllllls-3" d="M27.48,63.57s6-2,5.85-11.5"/><path class="cllllllls-3" d="M47.33,63.57s-6-2-5.85-11.5"/></g></g></svg>
