<svg xmlns="http://www.w3.org/2000/svg" viewBox="0 0 80.69 97.16"><defs><style>.clss-1{fill:#f36421;}</style></defs><title>Asset 9</title><g id="Layer_2" data-name="Layer 2"><g id="圖層_1" data-name="圖層 1"><path class="clss-1" d="M72.62,51.05A1.34,1.34,0,0,0,74,49.71V26.79a4,4,0,0,0-4-4H25.55a1.34,1.34,0,0,0-1.34,1.34V49.71a1.34,1.34,0,0,0,1.34,1.34ZM26.9,48.36V25.44h43a1.34,1.34,0,0,1,1.34,1.34V48.36H26.9Z"/><path class="clss-1" d="M9.41,48.36V26.79a1.34,1.34,0,0,1,1.34-1.34h12.1a1.34,1.34,0,0,1,1.34,1.34V48.36ZM22.86,22.75H10.76a4,4,0,0,0-4,4V49.71a1.34,1.34,0,0,0,1.34,1.34H25.55a1.34,1.34,0,0,0,1.35-1.34V26.79a4,4,0,0,0-4-4Z"/><path class="clss-1" d="M43,36.71h8.07v5.38H43V36.71Zm-1.34,8.07H52.45a1.34,1.34,0,0,0,1.34-1.34V35.36A1.34,1.34,0,0,0,52.45,34H41.69a1.34,1.34,0,0,0-1.34,1.35v8.07a1.34,1.34,0,0,0,1.34,1.34Z"/><path class="clss-1" d="M42.28,2.69H55.13v7.77H42.28V2.69ZM40.93,13.15H56.47a1.34,1.34,0,0,0,1.34-1.34V1.35A1.34,1.34,0,0,0,56.47,0H40.93a1.34,1.34,0,0,0-1.34,1.35V11.81a1.34,1.34,0,0,0,1.34,1.34Z"/><path class="clss-1" d="M24.95,17.37H33v5.38H24.95V17.37ZM23.6,25.44H34.36a1.34,1.34,0,0,0,1.34-1.34V16a1.34,1.34,0,0,0-1.34-1.35H23.6A1.34,1.34,0,0,0,22.26,16V24.1a1.34,1.34,0,0,0,1.34,1.34Z"/><path class="clss-1" d="M15.47,34h2.69v8.07H15.47V34ZM14.12,44.78H19.5a1.34,1.34,0,0,0,1.35-1.34V32.67a1.34,1.34,0,0,0-1.35-1.34H14.12a1.34,1.34,0,0,0-1.34,1.34V43.43a1.34,1.34,0,0,0,1.34,1.34Z"/><path class="clss-1" d="M11.06,76.83h5.38V88.64H11.06V76.83ZM9.71,91.33h8.07A1.34,1.34,0,0,0,19.13,90V75.49a1.34,1.34,0,0,0-1.34-1.34H9.71a1.34,1.34,0,0,0-1.34,1.34V90a1.34,1.34,0,0,0,1.34,1.34Z"/><path class="clss-1" d="M64.56,76.83h5.38V88.64H64.56V76.83Zm-1.34,14.5h8.07A1.34,1.34,0,0,0,72.62,90V75.49a1.34,1.34,0,0,0-1.34-1.34H63.21a1.34,1.34,0,0,0-1.34,1.34V90a1.34,1.34,0,0,0,1.34,1.34Z"/><path class="clss-1" d="M76.66,59.12A1.34,1.34,0,0,0,78,57.77V51.7a3.34,3.34,0,0,0-3.34-3.34H6A3.34,3.34,0,0,0,2.69,51.7v6.08A1.34,1.34,0,0,0,4,59.12ZM5.38,56.43V51.7A.65.65,0,0,1,6,51.05H74.67a.65.65,0,0,1,.65.65v4.73Z"/><path class="clss-1" d="M1.34,97.16h78a1.34,1.34,0,0,0,0-2.69h-78a1.34,1.34,0,0,0,0,2.69Z"/><rect class="clss-1" x="5.05" y="75.4" width="38.32" height="2.69" transform="translate(100.95 52.53) rotate(90)"/><rect class="clss-1" x="37.34" y="75.4" width="38.32" height="2.69" transform="translate(133.24 20.24) rotate(90)"/><rect class="clss-1" x="34.38" y="16.03" width="14.32" height="2.69" transform="translate(83.09 34.74) rotate(180)"/><rect class="clss-1" x="45.06" y="13.7" width="7.28" height="2.69" transform="translate(33.66 63.75) rotate(-90)"/><path class="clss-1" d="M4.33,59.12H76.51V94.47H4.33V59.12ZM3,97.16H77.86a1.34,1.34,0,0,0,1.34-1.34v-38a1.34,1.34,0,0,0-1.34-1.34H3a1.34,1.34,0,0,0-1.34,1.34v38A1.34,1.34,0,0,0,3,97.16Z"/><path class="clss-1" d="M64.56,64.94h5.38V69.5H64.56V64.94Zm-1.34,7.25h8.07a1.34,1.34,0,0,0,1.34-1.34V63.6a1.34,1.34,0,0,0-1.34-1.34H63.21a1.34,1.34,0,0,0-1.34,1.34v7.25a1.34,1.34,0,0,0,1.34,1.34Z"/><path class="clss-1" d="M11.06,64.94h5.38V69.5H11.06V64.94ZM9.71,72.19h8.07a1.34,1.34,0,0,0,1.34-1.34V63.6a1.34,1.34,0,0,0-1.34-1.34H9.71A1.34,1.34,0,0,0,8.37,63.6v7.25a1.34,1.34,0,0,0,1.34,1.34Z"/></g></g></svg>
