<svg xmlns="http://www.w3.org/2000/svg" viewBox="0 0 95.04 96.52"><defs><style>.ccccls-1,.cls-24343{fill:none;stroke:#f36421;stroke-miterlimit:10;}.ccccls-1{stroke-width:2.8px;}.cls-24343{stroke-width:3px;}</style></defs><title>Asset 6</title><g id="Layer_2" data-name="Layer 2"><g id="圖層_1" data-name="圖層 1"><path class="ccccls-1" d="M72.83,95.12V91a6.92,6.92,0,0,0-6.9-6.9H29.09a6.92,6.92,0,0,0-6.9,6.9v4.12Z"/><path class="ccccls-1" d="M84.55,74.79v-3.3c0-3-2.9-5.53-6.9-5.53H17.43c-3.9,0-6.9,2.49-6.9,5.53v3.3Z"/><rect class="ccccls-1" x="1.4" y="64.14" width="9.08" height="12.84" rx="1.82" ry="1.82"/><rect class="ccccls-1" x="84.55" y="64.14" width="9.08" height="12.84" rx="1.82" ry="1.82"/><rect class="ccccls-1" x="38.74" y="42.69" width="17.53" height="23.27"/><rect class="ccccls-1" x="31.4" y="22.57" width="9.38" height="15.62" rx="1.44" ry="1.44"/><rect class="ccccls-1" x="64.4" y="13.61" width="25.63" height="17.18" rx="1.44" ry="1.44"/><rect class="ccccls-1" x="39.4" y="1.4" width="16.22" height="17.93" rx="1.44" ry="1.44"/><rect class="ccccls-1" x="40.77" y="19.33" width="13.59" height="23.26"/><line class="cls-24343" x1="41.02" y1="27.45" x2="54.02" y2="27.45"/><polyline class="cls-24343" points="54.02 40.45 76.53 40.45 76.53 31.95"/><line class="ccccls-1" x1="32.77" y1="84.09" x2="37.4" y2="74.79"/><line class="ccccls-1" x1="60.4" y1="84.09" x2="55.77" y2="74.79"/></g></g></svg>
