<svg xmlns="http://www.w3.org/2000/svg" viewBox="0 0 111.46 85.4"><defs><style>.cls-11,.cls-222{fill:none;stroke:#f36421;stroke-miterlimit:10;}.cls-11{stroke-width:2.8px;}.cls-222{stroke-width:3px;}</style></defs><title>Asset 5</title><g id="Layer_2" data-name="Layer 2"><g id="圖層_1" data-name="圖層 1"><rect class="cls-11" x="8.34" y="35.46" width="26.62" height="37.36" rx="3.42" ry="3.42"/><rect class="cls-11" x="34.96" y="35.46" width="67.12" height="37.36" rx="3.42" ry="3.42"/><path class="cls-11" d="M110.06,81.56V76.24a3.43,3.43,0,0,0-3.42-3.42H4.82A3.43,3.43,0,0,0,1.4,76.24v5.28A2.48,2.48,0,0,0,3.88,84H107.63A2.44,2.44,0,0,0,110.06,81.56Z"/><rect class="cls-11" x="31.27" y="23.65" width="16.5" height="11.82" rx="1.82" ry="1.82"/><rect class="cls-11" x="55.47" y="1.4" width="25.63" height="17.18" rx="1.44" ry="1.44"/><rect class="cls-11" x="57.14" y="50.41" width="16.58" height="13.05" rx="1.44" ry="1.44"/><rect class="cls-11" x="17.19" y="46.41" width="8.83" height="17.05" rx="1.44" ry="1.44"/><polyline class="cls-222" points="47.52 26.33 68.02 26.33 68.02 17.83"/></g></g></svg>
