<svg xmlns="http://www.w3.org/2000/svg" viewBox="0 0 57.41 97.16"><defs><style>.cls12-1{fill:#f36421;}</style></defs><title>Asset 10</title><g id="Layer_2" data-name="Layer 2"><g id="圖層_1" data-name="圖層 1"><path class="cls12-1" d="M20.4,14.68h2.69v8.07H20.4V14.68ZM19.05,25.44h5.38a1.34,1.34,0,0,0,1.35-1.34V13.34A1.34,1.34,0,0,0,24.43,12H19.05a1.34,1.34,0,0,0-1.34,1.34V24.1a1.34,1.34,0,0,0,1.34,1.34Z"/><path class="cls12-1" d="M42.82,58.93a1.34,1.34,0,0,0,1.35-1.34V52.94a3.34,3.34,0,0,0-3.34-3.34H16.41a3.34,3.34,0,0,0-3.34,3.34v4.64a1.34,1.34,0,0,0,1.34,1.34ZM15.76,56.24v-3.3a.65.65,0,0,1,.65-.65H40.83a.65.65,0,0,1,.65.65v3.3Z"/><path class="cls12-1" d="M51.19,46.64a1.34,1.34,0,0,0,1.35-1.34V42.1a3.34,3.34,0,0,0-3.34-3.34H8A3.34,3.34,0,0,0,4.7,42.1v3.2A1.34,1.34,0,0,0,6,46.64ZM7.39,44V42.1A.65.65,0,0,1,8,41.45H49.2a.65.65,0,0,1,.65.65V44Z"/><rect class="cls12-1" x="21.46" y="43.95" width="13.25" height="2.69" transform="translate(56.16 90.6) rotate(180)"/><polygon class="cls12-1" points="18.17 50.71 21.46 43.95 23.95 44.77 20.66 51.53 18.17 50.71"/><polygon class="cls12-1" points="38.05 50.71 34.76 43.95 32.27 44.77 35.55 51.53 38.05 50.71"/><path class="cls12-1" d="M40.34,9.36H53.19v7.77H40.34V9.36ZM39,19.82H54.53a1.34,1.34,0,0,0,1.34-1.34V8a1.34,1.34,0,0,0-1.34-1.35H39A1.34,1.34,0,0,0,37.65,8V18.48A1.34,1.34,0,0,0,39,19.82Z"/><rect class="cls12-1" x="32.44" y="22.7" width="14.32" height="2.69" transform="translate(79.21 48.08) rotate(180)"/><rect class="cls12-1" x="43.12" y="20.37" width="7.28" height="2.69" transform="translate(25.05 68.48) rotate(-90)"/><path class="cls12-1" d="M2.69,40.53h2.1V45H2.69V40.53ZM1.34,47.69H6.13a1.34,1.34,0,0,0,1.34-1.34V39.19a1.34,1.34,0,0,0-1.34-1.34H1.34A1.34,1.34,0,0,0,0,39.19v7.15a1.34,1.34,0,0,0,1.34,1.34Z"/><path class="cls12-1" d="M52.62,40.53h2.1V45h-2.1V40.53Zm-1.34,7.15h4.79a1.34,1.34,0,0,0,1.34-1.34V39.19a1.34,1.34,0,0,0-1.34-1.34H51.28a1.34,1.34,0,0,0-1.34,1.34v7.15a1.34,1.34,0,0,0,1.34,1.34Z"/><path class="cls12-1" d="M25.93,76.83h5.38V88.64H25.93V76.83Zm-1.34,14.5h8.07A1.34,1.34,0,0,0,34,90V75.49a1.34,1.34,0,0,0-1.34-1.34H24.58a1.34,1.34,0,0,0-1.34,1.34V90a1.34,1.34,0,0,0,1.34,1.34Z"/><path class="cls12-1" d="M25.93,12.44h5.38V24.25H25.93V12.44Zm-1.34,14.5h8.07A1.34,1.34,0,0,0,34,25.59V11.1a1.34,1.34,0,0,0-1.34-1.34H24.58a1.34,1.34,0,0,0-1.34,1.34v14.5a1.34,1.34,0,0,0,1.34,1.34Z"/><path class="cls12-1" d="M25.93,2.69h5.38V14.5H25.93V2.69Zm-1.34,14.5h8.07A1.34,1.34,0,0,0,34,15.84V1.34A1.34,1.34,0,0,0,32.65,0H24.58a1.34,1.34,0,0,0-1.34,1.34v14.5a1.34,1.34,0,0,0,1.34,1.34Z"/><path class="cls12-1" d="M24.43,26.94H32.8V38.74H24.43V26.94Zm-1.34,14.5H34.15a1.34,1.34,0,0,0,1.34-1.34V25.59a1.34,1.34,0,0,0-1.34-1.34H23.09a1.34,1.34,0,0,0-1.34,1.34v14.5a1.34,1.34,0,0,0,1.34,1.34Z"/><path class="cls12-1" d="M25.93,64.94h5.38V69.5H25.93V64.94Zm-1.34,7.25h8.07A1.34,1.34,0,0,0,34,70.85V63.6a1.34,1.34,0,0,0-1.34-1.34H24.58a1.34,1.34,0,0,0-1.34,1.34v7.25a1.34,1.34,0,0,0,1.34,1.34Z"/><path class="cls12-1" d="M16.08,97.16H41.15a1.34,1.34,0,0,0,0-2.69H16.08a1.34,1.34,0,0,0,0,2.69Z"/><path class="cls12-1" d="M19.27,58.93H38V94.47H19.27V58.93ZM17.93,97.16H39.31a1.34,1.34,0,0,0,1.34-1.34V57.58a1.34,1.34,0,0,0-1.34-1.34H17.93a1.34,1.34,0,0,0-1.34,1.34V95.81a1.34,1.34,0,0,0,1.34,1.34Z"/></g></g></svg>
