<svg xmlns="http://www.w3.org/2000/svg" viewBox="0 0 79.22 79.22"><defs><style>.cls-1-1{fill:#f36421;}</style></defs><title>Asset 11</title><g id="Layer_2" data-name="Layer 2"><g id="圖層_1" data-name="圖層 1"><path class="cls-1-1" d="M39.62,19.07A20.54,20.54,0,1,0,60.15,39.62,20.57,20.57,0,0,0,39.62,19.07Zm0,38.15a17.6,17.6,0,1,1,17.6-17.6,17.62,17.62,0,0,1-17.6,17.6Zm0,0"/><path class="cls-1-1" d="M75.15,30.81h-3a33.64,33.64,0,0,0-3.32-8L71,20.71a4.09,4.09,0,0,0,0-5.77L64.28,8.26a4.18,4.18,0,0,0-5.77,0l-2.09,2.09a33.43,33.43,0,0,0-8-3.31v-3A4.08,4.08,0,0,0,44.34,0H34.89a4.08,4.08,0,0,0-4.07,4.08V7a33.45,33.45,0,0,0-8,3.31L20.71,8.26a4.18,4.18,0,0,0-5.77,0L8.26,14.94a4.09,4.09,0,0,0,0,5.77l2.09,2.09a33.25,33.25,0,0,0-3.31,8h-3A4.08,4.08,0,0,0,0,34.89v9.45a4.08,4.08,0,0,0,4.08,4.08H7a33.37,33.37,0,0,0,3.31,8L8.26,58.51a4.1,4.1,0,0,0,0,5.78L14.94,71a4.18,4.18,0,0,0,5.77,0l2.09-2.09a33.86,33.86,0,0,0,8,3.32v3a4.08,4.08,0,0,0,4.07,4.07h9.45a4.08,4.08,0,0,0,4.08-4.07v-3a33.75,33.75,0,0,0,8-3.32L58.51,71a4.19,4.19,0,0,0,5.78,0L71,64.29a4.08,4.08,0,0,0,0-5.78l-2.09-2.09a33.76,33.76,0,0,0,3.32-8h3a4.08,4.08,0,0,0,4.07-4.08V34.89a4.08,4.08,0,0,0-4.07-4.08Zm1.15,13.53a1.15,1.15,0,0,1-1.15,1.15H69.88l-.27,1.13a30.5,30.5,0,0,1-3.83,9.26l-.62,1,3.72,3.72a1.13,1.13,0,0,1,0,1.62l-6.68,6.68a1.14,1.14,0,0,1-1.62,0l-3.72-3.73-1,.62a30.5,30.5,0,0,1-9.26,3.83l-1.13.27v5.27a1.15,1.15,0,0,1-1.15,1.15H34.89a1.15,1.15,0,0,1-1.15-1.15V69.88l-1.13-.27a30.38,30.38,0,0,1-9.26-3.83l-1-.62-3.72,3.73a1.15,1.15,0,0,1-1.63,0l-6.68-6.68a1.15,1.15,0,0,1,0-1.62l3.72-3.72-.62-1a30.5,30.5,0,0,1-3.83-9.26l-.26-1.13H4.08a1.14,1.14,0,0,1-1.14-1.15V34.89a1.14,1.14,0,0,1,1.14-1.15H9.35l.26-1.13a30.54,30.54,0,0,1,3.83-9.25l.62-1-3.72-3.73a1.16,1.16,0,0,1,0-1.62L17,10.34a1.15,1.15,0,0,1,1.63,0l3.72,3.72,1-.62a30.43,30.43,0,0,1,9.26-3.83l1.13-.26V4.08a1.14,1.14,0,0,1,1.15-1.14h9.45a1.14,1.14,0,0,1,1.15,1.14V9.35l1.13.26a30.73,30.73,0,0,1,9.26,3.83l1,.62,3.72-3.72a1.14,1.14,0,0,1,1.62,0L68.89,17a1.14,1.14,0,0,1,0,1.62l-3.72,3.73.62,1a30.36,30.36,0,0,1,3.83,9.25l.27,1.13h5.27a1.15,1.15,0,0,1,1.15,1.15Zm0,0"/><path class="cls-1-1" d="M39.62,24.94A14.67,14.67,0,1,0,54.29,39.62,14.68,14.68,0,0,0,39.62,24.94Zm0,26.4A11.74,11.74,0,1,1,51.35,39.62,11.75,11.75,0,0,1,39.62,51.35Zm0,0"/></g></g></svg>
