<svg xmlns="http://www.w3.org/2000/svg" viewBox="0 0 79.21 78.55"><defs><style>.clls-1{fill:#f36421;}</style></defs><title>Asset 12</title><g id="Layer_2" data-name="Layer 2"><g id="圖層_1" data-name="圖層 1"><path class="clls-1" d="M73.3,60.63l-8-8a1.24,1.24,0,0,0-1.75,0L53.29,62.9a1.24,1.24,0,0,0,0,1.75l8,8-2.92,2.92-9.45-9.45.84-9.24,1.55-1.55L56,50.65h0l1.55-1.55,9.24-.84,9.45,9.45L73.3,60.63ZM29.76,54.48,28.25,53,25,49.72h0l-3.26-3.26-1.51-1.51,4.08-1.75L26,44.92l3.73,3.73,1.74,1.74-1.75,4.08Zm-18,17.43L2.77,63l1.08-2,4.91,4.91,4.91,4.91-2,1.08ZM18,46.27l1.05,1L6.37,60,5.32,59,18,46.27Zm-8.4,17L8.12,61.78,20.84,49.07l1.52,1.52L9.64,63.3Zm3.27,3.27-1.52-1.52L24.11,52.33l1.52,1.52L12.91,66.57Zm2.8,2.8-1.05-1.05L27.37,55.6l1.05,1.05L15.71,69.37Zm6.64-39.92-9.24.84L3.65,20.84l2.92-2.92,8,8a1.24,1.24,0,0,0,1.75,0L26.57,15.65a1.24,1.24,0,0,0,0-1.75l-8-8L21.5,3l9.45,9.45-.84,9.24-1.55,1.55L23.89,27.9l-1.55,1.55ZM57.49,9.61l9.28-4.22L69.3,7.92,65.08,17.2l-6.9,6.9-1.93-1.93-3.73-3.73-1.93-1.93,6.9-6.9ZM53.63,23,41.88,34.8l-2-2L51.64,21.06l2,2Zm-25,21,4.82-4.82,2,2L30.64,46l-2-2Zm21.78,8.64L38.08,40.34h0l-3.73-3.73-7.83-7.83,2.92-2.92,7.83,7.83L41,37.42h0L53.35,49.77l-2.92,2.92Zm28.41,4.14L68.11,46.1a1.24,1.24,0,0,0-1-.36l-10.27.93a1.24,1.24,0,0,0-.76.36l-1,1L43.63,36.55,55.38,24.8l1.93,1.93a1.24,1.24,0,0,0,1.75,0L67,18.79a1.24,1.24,0,0,0,.25-.36L71.9,8.16a1.24,1.24,0,0,0-.25-1.39L67.92,3a1.24,1.24,0,0,0-1.39-.25L56.26,7.45a1.24,1.24,0,0,0-.36.25L48,15.64a1.24,1.24,0,0,0,0,1.75l1.93,1.92L38.14,31.06l-7-7,1-1a1.24,1.24,0,0,0,.36-.76l.93-10.27a1.24,1.24,0,0,0-.36-1L22.37.36a1.24,1.24,0,0,0-1.75,0L16,5a1.24,1.24,0,0,0,0,1.75l8,8-8.52,8.52-8-8a1.24,1.24,0,0,0-1.75,0L1,20a1.24,1.24,0,0,0,0,1.75L11.76,32.45a1.24,1.24,0,0,0,.88.36h.11L23,31.87a1.24,1.24,0,0,0,.76-.36l1-1,7,7L26.91,42.3l-1.46-1.46a1.24,1.24,0,0,0-1.36-.26l-6.51,2.79h-.05l-.08,0,0,0-.06,0-.06,0,0,0-.06.06h0l0,0h0L2.72,58.09h0l0,0,0,0-.05.06,0,0,0,0,0,.07,0,0v0h0L.16,62.58a1.24,1.24,0,0,0,.21,1.48L10.63,74.33a1.24,1.24,0,0,0,1.48.21l4.2-2.33,0,0,.07,0,0,0,0,0,.06-.05h0l0,0h0L31,57.53l0,0,0,0h0l.08-.12,0,0,.07-.14h0v0h0l2.79-6.51a1.24,1.24,0,0,0-.26-1.36l-1.46-1.46L37.21,43,48.68,54.44l-1,1a1.24,1.24,0,0,0-.36.76L46.4,66.46a1.24,1.24,0,0,0,.36,1L57.49,78.19a1.24,1.24,0,0,0,1.75,0l4.67-4.67a1.24,1.24,0,0,0,0-1.75l-8-8,8.52-8.52,8,8a1.24,1.24,0,0,0,1.75,0l4.67-4.67a1.24,1.24,0,0,0,0-1.75Z"/></g></g></svg>
